<?xml version="1.0" encoding="UTF-8" standalone="no"?>
<!-- Generator: Adobe Illustrator 26.0.3, SVG Export Plug-In . SVG Version: 6.00 Build 0)  -->

<svg
   version="1.0"
   id="katman_1"
   x="0px"
   y="0px"
   viewBox="0 0 139.57355 46.491753"
   xml:space="preserve"
   sodipodi:docname="availableonspotify.svg"
   inkscape:version="1.3 (0e150ed, 2023-07-21)"
   width="139.57355"
   height="46.491753"
   xmlns:inkscape="http://www.inkscape.org/namespaces/inkscape"
   xmlns:sodipodi="http://sodipodi.sourceforge.net/DTD/sodipodi-0.dtd"
   xmlns="http://www.w3.org/2000/svg"
   xmlns:svg="http://www.w3.org/2000/svg"><defs
   id="defs1" /><sodipodi:namedview
   id="namedview1"
   pagecolor="#ffffff"
   bordercolor="#000000"
   borderopacity="0.25"
   inkscape:showpageshadow="2"
   inkscape:pageopacity="0.0"
   inkscape:pagecheckerboard="0"
   inkscape:deskcolor="#d1d1d1"
   inkscape:zoom="1.8901788"
   inkscape:cx="225.3755"
   inkscape:cy="-13.226262"
   inkscape:window-width="1680"
   inkscape:window-height="997"
   inkscape:window-x="1440"
   inkscape:window-y="25"
   inkscape:window-maximized="1"
   inkscape:current-layer="Group-2" />&#10;<style
   type="text/css"
   id="style1">&#10;	.st0{fill-rule:evenodd;clip-rule:evenodd;fill:#010202;stroke:#222225;stroke-width:1.4965;}&#10;	.st1{fill-rule:evenodd;clip-rule:evenodd;fill:#55B25B;}&#10;	.st2{fill-rule:evenodd;clip-rule:evenodd;fill:#FFFFFF;}&#10;</style>&#10;<g
   id="spotify-podcast-badge-blk-grn-330x80"
   transform="translate(-71.675796,-238.60861)">&#10;	<g
   id="Group-2">&#10;		<path
   id="Path"
   class="st0"
   d="M 203.16228,238.84195 H 78.067808 c -0.565016,0 -1.101781,0.078 -1.666796,0.19486 -0.536765,0.11691 -1.07353,0.35073 -1.553793,0.70147 -0.480263,0.35074 -0.932276,0.8184 -1.327787,1.32502 -0.395511,0.54561 -0.70627,1.13017 -0.960527,1.83166 -0.254257,0.66251 -0.423762,1.40297 -0.508514,2.14341 -0.08475,0.74047 -0.141254,1.51989 -0.141254,2.29931 0,0.15589 0,0.31177 0,0.5456 v 0.19486 c 0,0.15588 0,0.23383 0,0.35074 v 26.92915 c 0,0.11692 0,0.15588 0,0.35074 v 0.15588 c 0,0.23383 0,0.38972 0,0.5456 0,0.77942 0.0565,1.51988 0.141254,2.2993 0.08475,0.74047 0.254257,1.48091 0.508514,2.14343 0.254257,0.66251 0.565016,1.28605 0.960527,1.79268 0.395511,0.5456 0.819273,0.97427 1.327787,1.32502 0.480263,0.35074 1.017028,0.58457 1.553793,0.70148 0.536765,0.11692 1.10178,0.19486 1.666796,0.19486 h 0.762772 125.20747 0.79102 c 0.56502,0 1.10179,-0.078 1.6668,-0.19486 0.53676,-0.11691 1.07353,-0.35074 1.5538,-0.70148 0.48026,-0.35075 0.93227,-0.77942 1.32778,-1.32502 0.39551,-0.5456 0.70627,-1.13017 0.96053,-1.79268 0.25426,-0.66252 0.42376,-1.40296 0.50851,-2.14343 0.0847,-0.74044 0.14125,-1.51988 0.16951,-2.2993 v -1.05222 c 0,-0.078 0,-0.15589 0,-0.2728 0,-0.2728 0,-0.50662 0,-1.01325 v -24.39602 c 0,-0.62355 0,-0.89635 0,-1.28605 v -1.05223 c 0,-0.77942 -0.0565,-1.51987 -0.16951,-2.29931 -0.0847,-0.74044 -0.25425,-1.4809 -0.50851,-2.14341 -0.50851,-1.36399 -1.29953,-2.45519 -2.28831,-3.15668 -0.48027,-0.35074 -1.01704,-0.58456 -1.5538,-0.70147 -0.53677,-0.11692 -1.10178,-0.19486 -1.6668,-0.19486 z" />&#10;		<path
   id="Combined-Shape"
   class="st1"
   d="m 148.64573,260.75961 c 0.49546,0.27132 1.11479,0.0678 1.36253,-0.47481 0.24773,-0.50873 0.0929,-1.1192 -0.34064,-1.45835 -4.02564,-2.61145 -10.37376,-2.88277 -14.2136,-1.594 -0.52643,0.20349 -0.80513,0.84788 -0.61933,1.42443 0.1858,0.54264 0.68126,0.84787 1.20769,0.71221 3.34438,-1.08527 9.10414,-0.88179 12.60335,1.39052 z m -0.12386,3.39149 c 0.24773,-0.44089 0.12386,-1.01745 -0.2787,-1.28877 -3.34438,-2.2723 -8.23708,-2.88277 -12.16982,-1.594 -0.43353,0.16958 -0.68126,0.71221 -0.49547,1.18702 0.15484,0.4409 0.58837,0.71222 0.99093,0.57656 3.43728,-1.15311 7.86548,-0.57656 10.8073,1.39051 0.37159,0.30523 0.89802,0.16958 1.14576,-0.27132 z m -1.33156,3.25584 c 0.1858,-0.33915 0.0929,-0.81396 -0.21677,-1.01745 -2.84891,-1.93315 -6.41006,-2.37405 -10.5286,-1.32269 -0.37159,0.13566 -0.55739,0.54264 -0.46449,0.91571 0.0929,0.37306 0.43353,0.57655 0.74319,0.50872 3.77791,-0.94962 6.93649,-0.57655 9.50671,1.15311 0.37159,0.20349 0.77416,0.10175 0.95996,-0.2374 z m -4.95464,-17.2288 c 6.0075,-0.0339 10.93116,5.29073 10.96213,11.87023 0.031,6.5795 -4.83077,11.97198 -10.83826,12.0059 -6.00749,0.0339 -10.93116,-5.29074 -10.96213,-11.87024 0,-0.0339 0,-0.0339 0,-0.0678 0,-6.54558 4.83077,-11.90414 10.83826,-11.93806 z m 18.64181,11.02236 c 2.29152,0.61047 3.22052,1.56009 3.22052,3.28975 0,2.0349 -1.39349,3.32367 -3.59211,3.32367 -1.51736,0 -3.00375,-0.61047 -4.11854,-1.72967 -0.0619,-0.0678 -0.0619,-0.13566 0,-0.20349 0,0 0,0 0,0 l 1.02189,-1.35659 c 0.031,-0.0339 0.0619,-0.0339 0.0929,-0.0339 0.031,0 0.0619,0 0.0929,0.0339 0.80513,0.84787 1.85799,1.35659 2.97278,1.35659 0.99093,0 1.57929,-0.47481 1.57929,-1.22093 0,-0.74613 -0.30967,-1.05137 -2.07475,-1.52618 -2.10572,-0.57655 -3.31342,-1.28877 -3.31342,-3.32366 0,-1.89924 1.3935,-3.25584 3.43728,-3.25584 1.30059,-0.0339 2.57022,0.47481 3.59211,1.3566 0.0619,0.0339 0.0619,0.13566 0.031,0.16958 l -0.929,1.42442 c -0.031,0.0339 -0.0619,0.0339 -0.0929,0.0678 -0.031,0 -0.0619,0 -0.0929,0 -0.71223,-0.64438 -1.61026,-1.01745 -2.53925,-1.05136 -0.86707,0 -1.45543,0.44089 -1.45543,1.15311 0,0.71221 0.2787,1.05136 2.16765,1.52617 z m 9.69251,2.30622 c 0,-1.42443 -0.8361,-2.44188 -1.95089,-2.44188 -1.14576,0 -2.01282,1.05136 -2.01282,2.44188 0,1.39051 0.86706,2.44187 2.01282,2.44187 1.14576,0 1.95089,-0.98353 1.95089,-2.44187 z m -1.57929,-4.34112 c 1.76509,0 3.53017,1.49226 3.53017,4.34112 0,2.84885 -1.76508,4.34111 -3.53017,4.34111 -0.89803,0.0339 -1.76509,-0.40698 -2.35345,-1.18702 v 3.32366 c 0,0.0678 -0.0619,0.13566 -0.12387,0.13566 h -1.67219 c -0.0619,0 -0.12386,-0.0678 -0.12386,-0.13566 v -10.47972 c 0,-0.0678 0.0619,-0.13566 0.12386,-0.13566 0,0 0,0 0,0 h 1.67219 c 0.0619,0 0.12387,0.0678 0.12387,0.13566 0,0 0,0 0,0 v 0.94962 c 0.55739,-0.84787 1.42445,-1.28877 2.35345,-1.28877 z m 8.05128,6.81691 c 1.14576,0 2.10572,-1.01745 2.10572,-2.2723 0,-0.0339 0,-0.10175 0,-0.13566 0.0619,-1.28877 -0.8361,-2.40796 -2.01282,-2.47579 -0.031,0 -0.0619,0 -0.0929,0 -1.14576,0 -2.07476,1.01744 -2.07476,2.2723 0,0.0678 0,0.10174 0,0.16957 -0.0619,1.28877 0.8361,2.40796 2.01282,2.47579 0.031,-0.0339 0.0619,-0.0339 0.0619,-0.0339 z m 0,-6.81691 c 2.19862,0.0339 3.93274,2.00099 3.90177,4.40895 -0.031,2.40796 -1.82702,4.30719 -4.02564,4.27328 -2.13668,-0.0339 -3.87081,-1.96707 -3.90177,-4.3072 -0.031,-2.37404 1.73412,-4.34111 3.90177,-4.37503 0.0619,0 0.0929,0 0.12387,0 z m 8.85641,0.16958 c 0.0619,0 0.12386,0.0678 0.12386,0.13566 0,0 0,0 0,0 v 1.594 c 0,0.0678 -0.0619,0.13566 -0.12386,0.13566 0,0 0,0 0,0 h -1.85799 v 3.79847 c 0,0.61047 0.24773,0.88179 0.77416,0.88179 0.34063,0 0.68126,-0.10174 0.99093,-0.27132 0.0619,-0.0339 0.12386,0 0.15483,0.0678 0,0.0339 0,0.0339 0,0.0678 v 1.52618 c 0,0.0339 -0.031,0.10174 -0.0619,0.10174 -0.4645,0.30524 -1.0219,0.4409 -1.57929,0.4409 -1.48639,0 -2.22959,-0.84788 -2.22959,-2.50971 v -4.10371 h -0.80513 c -0.0619,0 -0.12386,-0.0678 -0.12386,-0.13566 v -1.594 c 0,-0.0678 0.0619,-0.13566 0.12386,-0.13566 h 0.8361 v -2.06881 c 0,-0.0678 0.0619,-0.13566 0.12386,-0.13566 v 0 h 1.67219 c 0.0619,0 0.12387,0.0678 0.12387,0.13566 0,0 0,0 0,0 v 2.06881 z m 6.41005,0 h 2.84892 c 0.0619,0 0.0929,0.0339 0.12386,0.10174 l 1.95089,5.62988 1.79606,-5.62988 c 0.031,-0.0678 0.0619,-0.10174 0.12386,-0.10174 h 1.73412 c 0.031,0 0.0619,0.0339 0.0929,0.0678 0.031,0.0339 0.031,0.0678 0,0.13566 l -2.91084,8.27525 c -0.58837,1.69574 -1.26963,2.34013 -2.50829,2.34013 -0.61933,0 -1.23866,-0.16958 -1.79605,-0.50873 -0.0619,-0.0339 -0.0929,-0.10174 -0.0619,-0.16957 l 0.5574,-1.39052 c 0,-0.0339 0.031,-0.0678 0.0619,-0.0678 0.031,0 0.0619,0 0.0929,0 0.2787,0.16958 0.58837,0.27132 0.929,0.30524 0.37159,0 0.65029,-0.13566 0.89802,-0.78004 l -2.38441,-6.30818 h -1.54833 v 6.34209 c 0,0.0678 -0.0619,0.13566 -0.12386,0.13566 h -1.67219 c -0.0619,0 -0.12387,-0.0678 -0.12387,-0.13566 v -6.30818 h -0.80513 c -0.0619,0 -0.12386,-0.0678 -0.12386,-0.13566 v -1.594 c 0,-0.0678 0.0619,-0.13566 0.12386,-0.13566 h 0.80513 v -0.47481 c 0,-1.79749 0.80513,-2.78103 2.35345,-2.78103 0.4645,0 0.929,0.0678 1.39349,0.20349 0.0619,0.0339 0.0929,0.0678 0.0929,0.13566 v 1.52618 c 0,0.0339 -0.031,0.0678 -0.0619,0.10174 -0.031,0.0339 -0.0619,0.0339 -0.12386,0 -0.30967,-0.13566 -0.61933,-0.20349 -0.929,-0.20349 -0.58836,0 -0.83609,0.33915 -0.83609,1.08528 z m -3.71597,0 c 0.0619,0 0.12386,0.0678 0.12386,0.13566 0,0 0,0 0,0 v 8.03784 c 0,0.0678 -0.0619,0.13566 -0.12386,0.13566 h -1.67219 c -0.0619,0 -0.12387,-0.0678 -0.12387,-0.13566 v -8.03784 c 0,-0.0678 0.0619,-0.13566 0.12387,-0.13566 0,0 0,0 0,0 z m -0.8361,-3.66282 c 0.68127,0 1.2077,0.57656 1.2077,1.32269 0,0.74613 -0.52643,1.32268 -1.2077,1.32268 -0.68126,0 -1.20769,-0.57655 -1.20769,-1.32268 0,0 0,0 0,0 0,-0.71222 0.5574,-1.32269 1.20769,-1.32269 z m 14.74004,4.47678 h -0.30966 v 0.44089 h 0.30966 c 0.15483,0 0.24773,-0.0678 0.24773,-0.20349 0,-0.13566 -0.0929,-0.2374 -0.24773,-0.2374 z m 0.21676,0.61047 0.34064,0.50872 h -0.2787 l -0.30967,-0.47481 h -0.24773 v 0.47481 h -0.24773 v -1.3566 h 0.58836 c 0.2787,0 0.4645,0.16958 0.4645,0.4409 -0.031,0.20349 -0.15483,0.37306 -0.30967,0.40698 z m -0.27869,-1.28877 c -0.58837,0 -1.08383,0.50872 -1.08383,1.15311 0,0.64438 0.4645,1.18702 1.05286,1.18702 0.58836,0 1.08383,-0.50872 1.08383,-1.15311 0,0 0,0 0,-0.0339 0.031,-0.64439 -0.43353,-1.15311 -1.05286,-1.15311 0.031,0 0.031,0 0,0 z m 0,2.44187 c -0.6503,0 -1.2077,-0.57655 -1.2077,-1.28876 0,-0.71222 0.52643,-1.32269 1.17673,-1.32269 0.6503,0 1.20769,0.57656 1.20769,1.28877 0,0 0,0 0,0 0.031,0.74613 -0.49546,1.32268 -1.17672,1.32268 0.031,0 0,0 0,0 z"
   style="stroke-width:0.324072" />&#10;		<path
   id="LISTEN-ON"
   class="st2"
   d="m 84.018724,265.0668 h -3.59211 v -6.10469 h 1.083826 v 4.9855 h 2.477317 z m 2.570216,0 h -1.114793 v -6.10469 h 1.114793 z m 5.790728,-4.64634 -0.990926,0.33915 c -0.0929,-0.54264 -0.52643,-0.91571 -1.021894,-0.84788 -0.43353,-0.0339 -0.836094,0.30524 -0.867061,0.78005 0,0 0,0 0,0 0,0.33915 0.185799,0.61047 0.61933,0.6783 l 0.774161,0.16957 c 1.021893,0.20349 1.548323,0.94962 1.548323,1.79749 0,0.84788 -0.712228,1.89924 -2.01282,1.89924 -1.48639,0 -2.136686,-1.05136 -2.229585,-1.89924 l 1.021893,-0.30523 c 0.03097,0.6783 0.557397,1.18702 1.176726,1.15311 0.03097,0 0.03097,0 0.06193,0 0.588363,0 0.928994,-0.30524 0.928994,-0.74613 0,-0.33915 -0.247732,-0.64439 -0.681263,-0.71222 l -0.774161,-0.16957 c -0.836095,-0.10175 -1.455424,-0.84788 -1.455424,-1.76358 0.06193,-1.11919 0.928994,-1.96707 1.950887,-1.93315 0,0 0,0 0,0 1.300592,-0.0339 1.827022,0.84787 1.950887,1.56009 z m 5.883628,-0.33915 h -1.765088 v 4.98549 h -1.083826 v -4.98549 h -1.765089 v -1.15311 h 4.64497 v 1.15311 z m 4.985604,4.98549 h -3.499213 v -6.1386 h 3.499213 v 1.15311 h -2.41539 v 1.39051 h 2.16766 v 1.05136 h -2.16766 v 1.39052 h 2.41539 z m 6.53392,0 h -1.14576 l -2.53925,-4.34111 v 4.34111 h -1.08382 v -6.10469 h 1.36252 l 2.32248,4.0698 v -4.0698 h 1.08383 z m 5.2643,-3.01843 c -0.0619,1.05137 0.68126,1.96707 1.64122,2.00099 0.95996,0.0678 1.79606,-0.74613 1.82702,-1.7975 0,-0.0678 0,-0.13566 0,-0.20349 0.0619,-1.05136 -0.68126,-1.96706 -1.64122,-2.00098 -0.95996,-0.0678 -1.79605,0.74613 -1.82702,1.79749 0,0.0678 0,0.13566 0,0.20349 z m -1.11479,0 c -0.0619,-1.72966 1.17672,-3.188 2.75601,-3.25583 1.57929,-0.0678 2.91085,1.28877 2.97278,3.01843 0,0.0678 0,0.16957 0,0.2374 0.0619,1.72967 -1.17672,3.18801 -2.75601,3.25584 -1.57929,0.0678 -2.91085,-1.28877 -2.97278,-3.01843 0,-0.0678 0,-0.16958 0,-0.23741 z m 12.20078,3.01843 h -1.14576 l -2.53925,-4.34111 v 4.34111 h -1.08382 v -6.1386 h 1.36252 l 2.32249,4.06979 v -4.06979 h 1.08382 z"
   style="stroke-width:0.324072" />&#10;	</g>&#10;</g>&#10;</svg>
