<?xml version="1.0" encoding="UTF-8" standalone="no"?>
<svg
   width="299.7688"
   height="77.389481"
   viewBox="0 0 299.7688 77.389481"
   fill="none"
   version="1.1"
   id="svg20"
   sodipodi:docname="AvailableonYouTube-black.svg"
   xml:space="preserve"
   inkscape:version="1.3 (0e150ed, 2023-07-21)"
   inkscape:export-filename="AvailableonYouTube-black.png"
   inkscape:export-xdpi="96"
   inkscape:export-ydpi="96"
   xmlns:inkscape="http://www.inkscape.org/namespaces/inkscape"
   xmlns:sodipodi="http://sodipodi.sourceforge.net/DTD/sodipodi-0.dtd"
   xmlns="http://www.w3.org/2000/svg"
   xmlns:svg="http://www.w3.org/2000/svg"><defs
     id="defs20"><rect
       x="10.845535"
       y="4.4969292"
       width="53.477203"
       height="21.793993"
       id="rect1" /></defs><sodipodi:namedview
     id="namedview20"
     pagecolor="#ffffff"
     bordercolor="#000000"
     borderopacity="0.25"
     inkscape:showpageshadow="2"
     inkscape:pageopacity="0.0"
     inkscape:pagecheckerboard="0"
     inkscape:deskcolor="#d1d1d1"
     inkscape:zoom="1.8138826"
     inkscape:cx="79.387717"
     inkscape:cy="46.309502"
     inkscape:window-width="1680"
     inkscape:window-height="997"
     inkscape:window-x="1440"
     inkscape:window-y="25"
     inkscape:window-maximized="1"
     inkscape:current-layer="svg20" /><g
     id="g1"
     transform="matrix(3.5562612,0,0,3.5562612,-198.59955,-51.271233)"><path
       id="Path-5"
       class="st0"
       d="M 132.08598,0.65288502 H 6.82 c -0.565791,0 -1.103292,0.0593 -1.669082,0.14816 C 4.613417,0.88994502 4.075917,1.067695 3.594995,1.334375 3.114074,1.601035 2.661441,1.956605 2.265387,2.341785 1.869334,2.756615 1.55815,3.201055 1.303543,3.734395 1.048938,4.238105 0.87920002,4.801085 0.79433302,5.3640352 c -0.08487,0.56299 -0.141448,1.15557 -0.141448,1.74817 0,0.11853 0,0.23704 0,0.41483 v 0.14814 c 0,0.11852 0,0.17779 0,0.26668 V 28.416125 c 0,0.0889 0,0.11852 0,0.26667 v 0.11852 c 0,0.17778 0,0.2963 0,0.41482 0,0.5926 0.05658,1.15557 0.141448,1.74816 0.08487,0.56298 0.25460498,1.12594 0.50920998,1.62965 0.254607,0.50371 0.565791,0.97779 0.961844,1.36299 0.396054,0.41482 0.820397,0.74073 1.329608,1.00741 0.480922,0.26666 1.018422,0.44445 1.555923,0.53334 0.537502,0.0889 1.103291,0.14814 1.669082,0.14814 h 0.763818 125.379132 0.79211 c 0.5658,0 1.1033,-0.0593 1.66909,-0.14814 0.53749,-0.0889 1.075,-0.26668 1.55592,-0.53334 0.48093,-0.26668 0.93356,-0.59259 1.3296,-1.00741 0.39606,-0.41483 0.70725,-0.85928 0.96185,-1.36299 0.25462,-0.50371 0.42434,-1.06667 0.50921,-1.62965 0.0848,-0.56295 0.14144,-1.15556 0.16974,-1.74816 v -0.80001 c 0,-0.0593 0,-0.11852 0,-0.2074 0,-0.20742 0,-0.38519 0,-0.77038 V 8.8900052 c 0,-0.47408 0,-0.6815 0,-0.97778 v -0.80002 c 0,-0.5926 -0.0565,-1.15555 -0.16974,-1.74817 -0.0849,-0.5629502 -0.25459,-1.1259302 -0.50921,-1.6296402 -0.5092,-1.03704 -1.30131,-1.86668 -2.29145,-2.40002 -0.48092,-0.26668 -1.01843,-0.44443998 -1.55592,-0.53332998 -0.53751,-0.0889 -1.10329,-0.14816 -1.66909,-0.14816 z"
       style="clip-rule:evenodd;fill:#010202;fill-rule:evenodd;stroke:#222225;stroke-width:1.30577" /><path
       d="M 93.970503,21.784252 V 18.59362 l -2.85543,-5.263923 h 1.291151 l 2.185025,4.096921 2.234687,-4.096921 h 1.241491 l -2.85543,5.263923 -0.01241,3.190632 z"
       fill="#ffffff"
       id="path12"
       style="stroke-width:0.775932" /><path
       d="m 100.55181,21.970476 c -0.85252,0 -1.51051,-0.269016 -1.973975,-0.806969 -0.463464,-0.537954 -0.695235,-1.295264 -0.695235,-2.271929 0,-0.968363 0.231771,-1.721561 0.695235,-2.259514 0.463465,-0.537954 1.121455,-0.80697 1.973975,-0.80697 0.85252,0 1.51051,0.269016 1.97397,0.80697 0.46347,0.537953 0.69524,1.291151 0.69524,2.259514 0,0.976665 -0.23177,1.733975 -0.69524,2.271929 -0.46346,0.537953 -1.12145,0.806969 -1.97397,0.806969 z m 0,-1.005608 c 0.48829,0 0.86074,-0.177921 1.11734,-0.533841 0.26483,-0.364145 0.39728,-0.877347 0.39728,-1.539449 0,-0.645576 -0.13245,-1.150475 -0.39728,-1.51462 -0.2566,-0.364145 -0.62905,-0.546256 -1.11734,-0.546256 -0.48007,0 -0.85252,0.182111 -1.117346,0.546256 -0.264825,0.364145 -0.397277,0.869044 -0.397277,1.51462 0,0.662102 0.132452,1.175304 0.397277,1.539449 0.264826,0.35592 0.637276,0.533841 1.117346,0.533841 z"
       fill="#ffffff"
       id="path13"
       style="stroke-width:0.775932" /><path
       d="m 106.70921,21.958061 c -0.67871,0 -1.20424,-0.202751 -1.57668,-0.608331 -0.37245,-0.405579 -0.55868,-1.005608 -0.55868,-1.800162 v -3.53825 h 1.15459 v 3.289952 c 0,0.28143 0.0248,0.542143 0.0745,0.782139 0.058,0.239996 0.1697,0.434522 0.3352,0.583501 0.17381,0.148979 0.43041,0.223469 0.76973,0.223469 0.43041,0 0.76142,-0.140677 0.99319,-0.422107 0.24,-0.281431 0.36003,-0.70765 0.36003,-1.278736 v -3.178218 h 1.15459 v 5.772934 h -1.04285 v -0.645575 c -0.19864,0.273128 -0.44283,0.480069 -0.73248,0.620745 -0.28143,0.132452 -0.5918,0.198639 -0.93112,0.198639 z"
       fill="#ffffff"
       id="path14"
       style="stroke-width:0.775932" /><path
       d="m 112.32859,21.784252 v -7.349628 h -2.65679 v -1.104927 h 6.72888 l -0.36003,1.104927 h -2.47057 v 7.349628 z"
       fill="#ffffff"
       id="path15"
       style="stroke-width:0.775932" /><path
       d="m 118.47909,21.958061 c -0.67863,0 -1.20424,-0.202751 -1.57669,-0.608331 -0.37245,-0.405579 -0.55867,-1.005608 -0.55867,-1.800162 v -3.53825 h 1.15458 v 3.289952 c 0,0.28143 0.0248,0.542143 0.0745,0.782139 0.058,0.239996 0.1697,0.434522 0.33521,0.583501 0.17381,0.148979 0.43041,0.223469 0.76972,0.223469 0.4308,0 0.76135,-0.140677 0.99335,-0.422107 0.23976,-0.281431 0.36003,-0.70765 0.36003,-1.278736 v -3.178218 h 1.15459 v 5.772934 h -1.04285 v -0.645575 c -0.19864,0.273128 -0.44306,0.480069 -0.73248,0.620745 -0.28167,0.132452 -0.59189,0.198639 -0.93128,0.198639 z"
       fill="#ffffff"
       id="path16"
       style="stroke-width:0.775932" /><path
       d="m 125.89871,21.958061 c -0.73714,0 -1.30822,-0.264826 -1.71326,-0.794554 v 0.620745 h -1.09251 v -8.454555 h 1.15459 v 3.252707 c 0.40503,-0.496596 0.95594,-0.744895 1.65118,-0.744895 0.76119,0 1.36098,0.269016 1.80016,0.80697 0.44694,0.529728 0.67041,1.278736 0.67041,2.247099 0,0.976665 -0.22347,1.733975 -0.67041,2.271929 -0.43918,0.529728 -1.03897,0.794554 -1.80016,0.794554 z m -0.17381,-1.005608 c 0.47177,0 0.83568,-0.173809 1.09251,-0.521426 0.2646,-0.35592 0.39728,-0.869044 0.39728,-1.539449 0,-0.637273 -0.13268,-1.13806 -0.39728,-1.502205 -0.25683,-0.364145 -0.62074,-0.546256 -1.09251,-0.546256 -0.47177,0 -0.83645,0.182111 -1.09251,0.546256 -0.25684,0.364145 -0.38486,0.864932 -0.38486,1.502205 0,0.662102 0.12802,1.171114 0.38486,1.527034 0.25606,0.35592 0.62074,0.533841 1.09251,0.533841 z"
       fill="#ffffff"
       id="path17"
       style="stroke-width:0.775932" /><path
       d="m 132.19617,21.958061 c -0.85275,0 -1.51927,-0.264826 -1.9988,-0.794554 -0.47176,-0.537954 -0.70765,-1.274624 -0.70765,-2.209855 0,-0.604218 0.0993,-1.138059 0.29796,-1.601523 0.19864,-0.471767 0.48806,-0.840102 0.86904,-1.104928 0.38021,-0.273128 0.85198,-0.409692 1.4153,-0.409692 0.81939,0 1.43548,0.264826 1.84983,0.794555 0.41357,0.521426 0.62074,1.229076 0.62074,2.12295 0,0.09932 -0.009,0.190336 -0.0248,0.273128 -0.009,0.08279 -0.0171,0.177921 -0.0248,0.285543 h -3.87345 c 0.0411,0.587613 0.21105,1.01391 0.50901,1.278736 0.30572,0.264825 0.71153,0.397277 1.21666,0.397277 0.2646,0 0.50048,-0.03724 0.70765,-0.111734 0.2064,-0.08279 0.42987,-0.223469 0.67041,-0.422107 l 0.5835,0.744894 c -0.31503,0.264826 -0.6417,0.459352 -0.98078,0.583501 -0.33132,0.115847 -0.70765,0.173809 -1.12976,0.173809 z m -0.11173,-5.152189 c -0.45547,0 -0.80309,0.153092 -1.04285,0.459352 -0.24054,0.306261 -0.38099,0.715953 -0.42211,1.229076 h 2.89267 c -0.0171,-0.529728 -0.14122,-0.943533 -0.37244,-1.241491 -0.22347,-0.297958 -0.57574,-0.446937 -1.05527,-0.446937 z"
       fill="#ffffff"
       id="path18"
       style="stroke-width:0.775932" /><path
       d="m 74.528768,28.068528 c 0,0 8.927253,0 11.141607,-0.598476 1.246846,-0.339083 2.184404,-1.316602 2.513632,-2.523564 0.608408,-2.214355 0.608408,-6.872508 0.608408,-6.872508 0,0 0,-4.628201 -0.608408,-6.822615 -0.329228,-1.236835 -1.266786,-2.1944128 -2.513632,-2.5235628 -2.214354,-0.60844 -11.141607,-0.60844 -11.141607,-0.60844 0,0 -8.907312,0 -11.111735,0.60844 -1.226826,0.32915 -2.184404,1.2867278 -2.533496,2.5235628 -0.588544,2.194414 -0.588544,6.822615 -0.588544,6.822615 0,0 0,4.658153 0.588544,6.872508 0.349092,1.206962 1.30667,2.184481 2.533496,2.523564 2.204423,0.598476 11.111735,0.598476 11.111735,0.598476 z"
       fill="#ff0000"
       id="path19"
       style="stroke-width:0.775932" /><path
       d="M 79.087834,18.074058 71.696616,13.81489 v 8.54821 z"
       fill="#ffffff"
       id="path20"
       style="stroke-width:0.775932" /><text
       xml:space="preserve"
       transform="matrix(1.0855937,0,0,1.0855937,-8.9098311,2.519545)"
       id="text1"
       style="font-size:8px;font-family:roboto;-inkscape-font-specification:roboto;text-align:center;white-space:pre;shape-inside:url(#rect1);display:inline;fill:#ffffff;stroke:#ffffff;stroke-width:0;stroke-dasharray:none"
       x="21.433594"
       y="0"><tspan
         x="16.050781"
         y="11.496094"
         id="tspan1">Escúchanos </tspan><tspan
         x="33.246094"
         y="21.496094"
         id="tspan2">en</tspan></text></g></svg>
