<?xml version="1.0" encoding="UTF-8" standalone="no"?>
<!-- Generator: Adobe Illustrator 26.0.3, SVG Export Plug-In . SVG Version: 6.00 Build 0)  -->

<svg
   version="1.0"
   id="katman_1"
   x="0px"
   y="0px"
   viewBox="0 0 140.60337 36.29871"
   xml:space="preserve"
   sodipodi:docname="availableonspotify.svg"
   inkscape:version="1.3 (0e150ed, 2023-07-21)"
   width="140.60336"
   height="36.29871"
   inkscape:export-filename="availableonspotify.png"
   inkscape:export-xdpi="96"
   inkscape:export-ydpi="96"
   xmlns:inkscape="http://www.inkscape.org/namespaces/inkscape"
   xmlns:sodipodi="http://sodipodi.sourceforge.net/DTD/sodipodi-0.dtd"
   xmlns="http://www.w3.org/2000/svg"
   xmlns:svg="http://www.w3.org/2000/svg"><defs
   id="defs1"><rect
     x="23.278221"
     y="39.281998"
     width="21.16202"
     height="12.697212"
     id="rect2" /><rect
     x="10.845535"
     y="4.4969292"
     width="53.477203"
     height="21.793993"
     id="rect1" /></defs><sodipodi:namedview
   id="namedview1"
   pagecolor="#ffffff"
   bordercolor="#000000"
   borderopacity="0.25"
   inkscape:showpageshadow="2"
   inkscape:pageopacity="0.0"
   inkscape:pagecheckerboard="0"
   inkscape:deskcolor="#d1d1d1"
   inkscape:zoom="2.6731165"
   inkscape:cx="94.646081"
   inkscape:cy="31.0499"
   inkscape:window-width="1680"
   inkscape:window-height="997"
   inkscape:window-x="1440"
   inkscape:window-y="25"
   inkscape:window-maximized="1"
   inkscape:current-layer="Group-2" />&#10;<style
   type="text/css"
   id="style1">&#10;	.st0{fill-rule:evenodd;clip-rule:evenodd;fill:#010202;stroke:#222225;stroke-width:1.4965;}&#10;	.st1{fill-rule:evenodd;clip-rule:evenodd;fill:#55B25B;}&#10;	.st2{fill-rule:evenodd;clip-rule:evenodd;fill:#FFFFFF;}&#10;</style>&#10;<g
   id="spotify-podcast-badge-blk-grn-330x80"
   transform="translate(-71.160887,-244.45331)">&#10;	<g
   id="Group-2">&#10;		<path
   id="Path"
   class="st0"
   d="M 203.24687,245.1062 H 77.980888 c -0.565791,0 -1.103292,0.0593 -1.669082,0.14816 -0.537501,0.0889 -1.075001,0.26665 -1.555923,0.53333 -0.480921,0.26666 -0.933554,0.62223 -1.329608,1.00741 -0.396053,0.41483 -0.707237,0.85927 -0.961844,1.39261 -0.254605,0.50371 -0.424343,1.06669 -0.50921,1.62964 -0.08487,0.56299 -0.141448,1.15557 -0.141448,1.74817 0,0.11853 0,0.23704 0,0.41483 v 0.14814 c 0,0.11852 0,0.17779 0,0.26668 v 20.47427 c 0,0.0889 0,0.11852 0,0.26667 v 0.11852 c 0,0.17778 0,0.2963 0,0.41482 0,0.5926 0.05658,1.15557 0.141448,1.74816 0.08487,0.56298 0.254605,1.12594 0.50921,1.62965 0.254607,0.50371 0.565791,0.97779 0.961844,1.36299 0.396054,0.41482 0.820397,0.74073 1.329608,1.00741 0.480922,0.26666 1.018422,0.44445 1.555923,0.53334 0.537502,0.0889 1.103291,0.14814 1.669082,0.14814 h 0.763818 125.379134 0.79211 c 0.5658,0 1.1033,-0.0593 1.66909,-0.14814 0.53749,-0.0889 1.075,-0.26668 1.55592,-0.53334 0.48093,-0.26668 0.93356,-0.59259 1.3296,-1.00741 0.39606,-0.41483 0.70725,-0.85928 0.96185,-1.36299 0.25462,-0.50371 0.42434,-1.06667 0.50921,-1.62965 0.0848,-0.56295 0.14144,-1.15556 0.16974,-1.74816 v -0.80001 c 0,-0.0593 0,-0.11852 0,-0.2074 0,-0.20742 0,-0.38519 0,-0.77038 v -18.54834 c 0,-0.47408 0,-0.6815 0,-0.97778 v -0.80002 c 0,-0.5926 -0.0565,-1.15555 -0.16974,-1.74817 -0.0849,-0.56295 -0.25459,-1.12593 -0.50921,-1.62964 -0.5092,-1.03704 -1.30131,-1.86668 -2.29145,-2.40002 -0.48092,-0.26668 -1.01843,-0.44444 -1.55592,-0.53333 -0.53751,-0.0889 -1.10329,-0.14816 -1.66909,-0.14816 z" />&#10;		<path
   id="Combined-Shape"
   class="st1"
   d="m 148.64573,260.75961 c 0.49546,0.27132 1.11479,0.0678 1.36253,-0.47481 0.24773,-0.50873 0.0929,-1.1192 -0.34064,-1.45835 -4.02564,-2.61145 -10.37376,-2.88277 -14.2136,-1.594 -0.52643,0.20349 -0.80513,0.84788 -0.61933,1.42443 0.1858,0.54264 0.68126,0.84787 1.20769,0.71221 3.34438,-1.08527 9.10414,-0.88179 12.60335,1.39052 z m -0.12386,3.39149 c 0.24773,-0.44089 0.12386,-1.01745 -0.2787,-1.28877 -3.34438,-2.2723 -8.23708,-2.88277 -12.16982,-1.594 -0.43353,0.16958 -0.68126,0.71221 -0.49547,1.18702 0.15484,0.4409 0.58837,0.71222 0.99093,0.57656 3.43728,-1.15311 7.86548,-0.57656 10.8073,1.39051 0.37159,0.30523 0.89802,0.16958 1.14576,-0.27132 z m -1.33156,3.25584 c 0.1858,-0.33915 0.0929,-0.81396 -0.21677,-1.01745 -2.84891,-1.93315 -6.41006,-2.37405 -10.5286,-1.32269 -0.37159,0.13566 -0.55739,0.54264 -0.46449,0.91571 0.0929,0.37306 0.43353,0.57655 0.74319,0.50872 3.77791,-0.94962 6.93649,-0.57655 9.50671,1.15311 0.37159,0.20349 0.77416,0.10175 0.95996,-0.2374 z m -4.95464,-17.2288 c 6.0075,-0.0339 10.93116,5.29073 10.96213,11.87023 0.031,6.5795 -4.83077,11.97198 -10.83826,12.0059 -6.00749,0.0339 -10.93116,-5.29074 -10.96213,-11.87024 0,-0.0339 0,-0.0339 0,-0.0678 0,-6.54558 4.83077,-11.90414 10.83826,-11.93806 z m 18.64181,11.02236 c 2.29152,0.61047 3.22052,1.56009 3.22052,3.28975 0,2.0349 -1.39349,3.32367 -3.59211,3.32367 -1.51736,0 -3.00375,-0.61047 -4.11854,-1.72967 -0.0619,-0.0678 -0.0619,-0.13566 0,-0.20349 0,0 0,0 0,0 l 1.02189,-1.35659 c 0.031,-0.0339 0.0619,-0.0339 0.0929,-0.0339 0.031,0 0.0619,0 0.0929,0.0339 0.80513,0.84787 1.85799,1.35659 2.97278,1.35659 0.99093,0 1.57929,-0.47481 1.57929,-1.22093 0,-0.74613 -0.30967,-1.05137 -2.07475,-1.52618 -2.10572,-0.57655 -3.31342,-1.28877 -3.31342,-3.32366 0,-1.89924 1.3935,-3.25584 3.43728,-3.25584 1.30059,-0.0339 2.57022,0.47481 3.59211,1.3566 0.0619,0.0339 0.0619,0.13566 0.031,0.16958 l -0.929,1.42442 c -0.031,0.0339 -0.0619,0.0339 -0.0929,0.0678 -0.031,0 -0.0619,0 -0.0929,0 -0.71223,-0.64438 -1.61026,-1.01745 -2.53925,-1.05136 -0.86707,0 -1.45543,0.44089 -1.45543,1.15311 0,0.71221 0.2787,1.05136 2.16765,1.52617 z m 9.69251,2.30622 c 0,-1.42443 -0.8361,-2.44188 -1.95089,-2.44188 -1.14576,0 -2.01282,1.05136 -2.01282,2.44188 0,1.39051 0.86706,2.44187 2.01282,2.44187 1.14576,0 1.95089,-0.98353 1.95089,-2.44187 z m -1.57929,-4.34112 c 1.76509,0 3.53017,1.49226 3.53017,4.34112 0,2.84885 -1.76508,4.34111 -3.53017,4.34111 -0.89803,0.0339 -1.76509,-0.40698 -2.35345,-1.18702 v 3.32366 c 0,0.0678 -0.0619,0.13566 -0.12387,0.13566 h -1.67219 c -0.0619,0 -0.12386,-0.0678 -0.12386,-0.13566 v -10.47972 c 0,-0.0678 0.0619,-0.13566 0.12386,-0.13566 0,0 0,0 0,0 h 1.67219 c 0.0619,0 0.12387,0.0678 0.12387,0.13566 0,0 0,0 0,0 v 0.94962 c 0.55739,-0.84787 1.42445,-1.28877 2.35345,-1.28877 z m 8.05128,6.81691 c 1.14576,0 2.10572,-1.01745 2.10572,-2.2723 0,-0.0339 0,-0.10175 0,-0.13566 0.0619,-1.28877 -0.8361,-2.40796 -2.01282,-2.47579 -0.031,0 -0.0619,0 -0.0929,0 -1.14576,0 -2.07476,1.01744 -2.07476,2.2723 0,0.0678 0,0.10174 0,0.16957 -0.0619,1.28877 0.8361,2.40796 2.01282,2.47579 0.031,-0.0339 0.0619,-0.0339 0.0619,-0.0339 z m 0,-6.81691 c 2.19862,0.0339 3.93274,2.00099 3.90177,4.40895 -0.031,2.40796 -1.82702,4.30719 -4.02564,4.27328 -2.13668,-0.0339 -3.87081,-1.96707 -3.90177,-4.3072 -0.031,-2.37404 1.73412,-4.34111 3.90177,-4.37503 0.0619,0 0.0929,0 0.12387,0 z m 8.85641,0.16958 c 0.0619,0 0.12386,0.0678 0.12386,0.13566 0,0 0,0 0,0 v 1.594 c 0,0.0678 -0.0619,0.13566 -0.12386,0.13566 0,0 0,0 0,0 h -1.85799 v 3.79847 c 0,0.61047 0.24773,0.88179 0.77416,0.88179 0.34063,0 0.68126,-0.10174 0.99093,-0.27132 0.0619,-0.0339 0.12386,0 0.15483,0.0678 0,0.0339 0,0.0339 0,0.0678 v 1.52618 c 0,0.0339 -0.031,0.10174 -0.0619,0.10174 -0.4645,0.30524 -1.0219,0.4409 -1.57929,0.4409 -1.48639,0 -2.22959,-0.84788 -2.22959,-2.50971 v -4.10371 h -0.80513 c -0.0619,0 -0.12386,-0.0678 -0.12386,-0.13566 v -1.594 c 0,-0.0678 0.0619,-0.13566 0.12386,-0.13566 h 0.8361 v -2.06881 c 0,-0.0678 0.0619,-0.13566 0.12386,-0.13566 v 0 h 1.67219 c 0.0619,0 0.12387,0.0678 0.12387,0.13566 0,0 0,0 0,0 v 2.06881 z m 6.41005,0 h 2.84892 c 0.0619,0 0.0929,0.0339 0.12386,0.10174 l 1.95089,5.62988 1.79606,-5.62988 c 0.031,-0.0678 0.0619,-0.10174 0.12386,-0.10174 h 1.73412 c 0.031,0 0.0619,0.0339 0.0929,0.0678 0.031,0.0339 0.031,0.0678 0,0.13566 l -2.91084,8.27525 c -0.58837,1.69574 -1.26963,2.34013 -2.50829,2.34013 -0.61933,0 -1.23866,-0.16958 -1.79605,-0.50873 -0.0619,-0.0339 -0.0929,-0.10174 -0.0619,-0.16957 l 0.5574,-1.39052 c 0,-0.0339 0.031,-0.0678 0.0619,-0.0678 0.031,0 0.0619,0 0.0929,0 0.2787,0.16958 0.58837,0.27132 0.929,0.30524 0.37159,0 0.65029,-0.13566 0.89802,-0.78004 l -2.38441,-6.30818 h -1.54833 v 6.34209 c 0,0.0678 -0.0619,0.13566 -0.12386,0.13566 h -1.67219 c -0.0619,0 -0.12387,-0.0678 -0.12387,-0.13566 v -6.30818 h -0.80513 c -0.0619,0 -0.12386,-0.0678 -0.12386,-0.13566 v -1.594 c 0,-0.0678 0.0619,-0.13566 0.12386,-0.13566 h 0.80513 v -0.47481 c 0,-1.79749 0.80513,-2.78103 2.35345,-2.78103 0.4645,0 0.929,0.0678 1.39349,0.20349 0.0619,0.0339 0.0929,0.0678 0.0929,0.13566 v 1.52618 c 0,0.0339 -0.031,0.0678 -0.0619,0.10174 -0.031,0.0339 -0.0619,0.0339 -0.12386,0 -0.30967,-0.13566 -0.61933,-0.20349 -0.929,-0.20349 -0.58836,0 -0.83609,0.33915 -0.83609,1.08528 z m -3.71597,0 c 0.0619,0 0.12386,0.0678 0.12386,0.13566 0,0 0,0 0,0 v 8.03784 c 0,0.0678 -0.0619,0.13566 -0.12386,0.13566 h -1.67219 c -0.0619,0 -0.12387,-0.0678 -0.12387,-0.13566 v -8.03784 c 0,-0.0678 0.0619,-0.13566 0.12387,-0.13566 0,0 0,0 0,0 z m -0.8361,-3.66282 c 0.68127,0 1.2077,0.57656 1.2077,1.32269 0,0.74613 -0.52643,1.32268 -1.2077,1.32268 -0.68126,0 -1.20769,-0.57655 -1.20769,-1.32268 0,0 0,0 0,0 0,-0.71222 0.5574,-1.32269 1.20769,-1.32269 z m 14.74004,4.47678 h -0.30966 v 0.44089 h 0.30966 c 0.15483,0 0.24773,-0.0678 0.24773,-0.20349 0,-0.13566 -0.0929,-0.2374 -0.24773,-0.2374 z m 0.21676,0.61047 0.34064,0.50872 h -0.2787 l -0.30967,-0.47481 h -0.24773 v 0.47481 h -0.24773 v -1.3566 h 0.58836 c 0.2787,0 0.4645,0.16958 0.4645,0.4409 -0.031,0.20349 -0.15483,0.37306 -0.30967,0.40698 z m -0.27869,-1.28877 c -0.58837,0 -1.08383,0.50872 -1.08383,1.15311 0,0.64438 0.4645,1.18702 1.05286,1.18702 0.58836,0 1.08383,-0.50872 1.08383,-1.15311 0,0 0,0 0,-0.0339 0.031,-0.64439 -0.43353,-1.15311 -1.05286,-1.15311 0.031,0 0.031,0 0,0 z m 0,2.44187 c -0.6503,0 -1.2077,-0.57655 -1.2077,-1.28876 0,-0.71222 0.52643,-1.32269 1.17673,-1.32269 0.6503,0 1.20769,0.57656 1.20769,1.28877 0,0 0,0 0,0 0.031,0.74613 -0.49546,1.32268 -1.17672,1.32268 0.031,0 0,0 0,0 z"
   style="stroke-width:0.324072" />&#10;		&#10;	<text
   xml:space="preserve"
   transform="matrix(1.0855937,0,0,1.0855937,62.251057,246.97286)"
   id="text1"
   style="font-size:8px;font-family:roboto;-inkscape-font-specification:roboto;text-align:center;white-space:pre;shape-inside:url(#rect1);display:inline;fill:#ffffff;stroke:#ffffff;stroke-width:0;stroke-dasharray:none"
   x="21.433594"
   y="0"><tspan
     x="16.050781"
     y="11.496094"
     id="tspan1">Escúchanos </tspan><tspan
     x="33.246094"
     y="21.496094"
     id="tspan3">en</tspan></text><text
   xml:space="preserve"
   transform="translate(71.675796,238.60861)"
   id="text2"
   style="font-size:8px;font-family:roboto;-inkscape-font-specification:roboto;white-space:pre;shape-inside:url(#rect2);display:inline;fill:#ffffff;stroke:#ffffff;stroke-width:0;stroke-dasharray:none" /></g>&#10;</g>&#10;</svg>
