<?xml version="1.0" encoding="UTF-8" standalone="no"?>
<!-- Created with Inkscape (http://www.inkscape.org/) -->

<svg
   width="57.679722mm"
   height="64.62265mm"
   viewBox="0 0 57.679722 64.62265"
   version="1.1"
   id="svg1"
   xml:space="preserve"
   xmlns:inkscape="http://www.inkscape.org/namespaces/inkscape"
   xmlns:sodipodi="http://sodipodi.sourceforge.net/DTD/sodipodi-0.dtd"
   xmlns="http://www.w3.org/2000/svg"
   xmlns:svg="http://www.w3.org/2000/svg"><sodipodi:namedview
     id="namedview1"
     pagecolor="#ffffff"
     bordercolor="#000000"
     borderopacity="0.25"
     inkscape:showpageshadow="2"
     inkscape:pageopacity="0.0"
     inkscape:pagecheckerboard="0"
     inkscape:deskcolor="#d1d1d1"
     inkscape:document-units="mm" /><defs
     id="defs1" /><g
     inkscape:label="Layer 1"
     inkscape:groupmode="layer"
     id="layer1"
     transform="translate(-58.513635,-86.797697)"><rect
       style="fill:#fedd00;fill-opacity:1;stroke:#ffffff;stroke-width:0"
       id="rect1"
       width="57.679718"
       height="64.622643"
       x="58.513638"
       y="86.797699"
       rx="2.5741637" /><path
       style="fill:#000000;stroke-width:0.462482"
       d="m 80.89285,137.72658 c -1.853238,-0.32123 -3.584831,-1.60075 -4.661764,-3.44472 -1.100242,-1.88387 -1.455272,-3.66023 -1.455994,-7.28492 -5.55e-4,-2.73687 -0.101761,-3.44976 -0.630634,-4.44176 -0.624882,-1.17207 -1.804757,-1.81924 -3.683225,-2.02031 l -0.825963,-0.0884 v -1.67412 -1.67413 l 1.103956,-0.13935 c 2.33928,-0.29527 3.518951,-1.32188 3.902381,-3.39604 0.07315,-0.39568 0.133317,-1.79683 0.133714,-3.11366 10e-4,-3.55344 0.309414,-5.22239 1.324029,-7.16647 0.909909,-1.74345 2.764279,-3.14501 4.601834,-3.478137 0.709023,-0.128538 1.53768,-0.175683 1.53768,-0.08748 0,0.02428 0.114789,0.606967 0.255088,1.294867 0.140298,0.6879 0.232461,1.27335 0.204806,1.30101 -0.02766,0.0276 -0.34765,0.10667 -0.711098,0.17559 -0.856399,0.16242 -1.498308,0.59619 -1.948807,1.31691 -0.624614,0.99926 -0.74941,1.88997 -0.852553,6.08495 -0.08314,3.38156 -0.121571,3.88061 -0.35402,4.59751 -0.517083,1.59476 -1.672676,2.96125 -3.250335,3.84352 l -0.841314,0.47049 0.781613,0.37766 c 0.945918,0.45704 2.349854,1.80488 2.837444,2.72407 0.636556,1.2 0.82004,2.27406 0.820153,4.80093 1.78e-4,3.95206 0.277627,5.68882 1.120019,7.01104 0.412736,0.64783 1.330827,1.31983 1.807026,1.32266 0.642643,0.003 0.667588,0.0981 0.388321,1.46735 -0.140988,0.69129 -0.256343,1.27675 -0.256343,1.30103 0,0.0691 -0.739304,0.0251 -1.346014,-0.0801 z m 13.468609,-0.51818 c -0.0738,-0.35333 -0.198255,-0.93599 -0.276568,-1.2948 -0.162906,-0.74636 -0.122618,-0.80299 0.660265,-0.92818 0.631245,-0.10094 1.535353,-0.94191 1.972563,-1.83481 0.587351,-1.19953 0.720675,-2.16334 0.813976,-5.88437 0.07623,-3.04006 0.115832,-3.51793 0.351397,-4.23994 0.50548,-1.54928 1.786012,-3.064 3.258028,-3.85386 l 0.71701,-0.38474 -0.54048,-0.27498 c -1.382805,-0.70353 -2.487252,-1.84328 -3.115095,-3.21465 -0.543876,-1.18799 -0.663632,-2.10599 -0.665943,-5.10496 -0.0035,-3.93157 -0.232958,-5.5043 -0.956367,-6.54167 -0.46082,-0.66082 -1.01194,-1.007 -1.872799,-1.17636 -0.396847,-0.0781 -0.721546,-0.1838 -0.721546,-0.23493 0,-0.0512 0.110132,-0.62821 0.244732,-1.28238 0.1346,-0.65418 0.244732,-1.210881 0.244732,-1.237123 0,-0.0922 0.819142,-0.04632 1.534714,0.08596 2.70364,0.499803 4.815472,2.793423 5.571862,6.051483 0.20704,0.89183 0.27232,1.73271 0.35105,4.52178 0.10653,3.77409 0.15716,4.05417 0.92143,5.09772 0.58589,0.79999 1.61589,1.29135 3.09945,1.47861 l 1.12509,0.14202 v 1.66867 1.66868 l -1.12283,0.13825 c -2.07894,0.25597 -3.22111,1.12538 -3.80407,2.89563 -0.0671,0.20381 -0.1635,1.85731 -0.21416,3.67442 -0.0828,2.96954 -0.1236,3.42374 -0.40313,4.48857 -0.50687,1.93087 -1.540799,3.72074 -2.694231,4.66407 -1.134477,0.92784 -2.689922,1.54763 -3.896164,1.5525 -0.443074,0.002 -0.450423,-0.006 -0.582916,-0.64061 z"
       id="path1"
       inkscape:label="path1" /></g></svg>
